SplineFontDB: 3.0
FontName: N-Text-Italic-First-draw
FullName: N-Text-Italic First draw
FamilyName: N-Text
Weight: Kursiv
Copyright: Created with FontForge 2.0 (http://fontforge.sf.net)
UComments: "2011-2-5: Created." 
Version: 001.000
ItalicAngle: -25
UnderlinePosition: -148
UnderlineWidth: 72
Ascent: 721
Descent: 303
LayerCount: 3
Layer: 0 0 "Back"  1
Layer: 1 0 "Zeichenebene"  0
Layer: 2 0 "Struktur"  1
XUID: [1021 201 23757 4592]
FSType: 0
OS2Version: 0
OS2_WeightWidthSlopeOnly: 0
OS2_UseTypoMetrics: 1
CreationTime: 1296944922
ModificationTime: 1409129623
OS2TypoAscent: 0
OS2TypoAOffset: 1
OS2TypoDescent: 0
OS2TypoDOffset: 1
OS2TypoLinegap: 92
OS2WinAscent: 0
OS2WinAOffset: 1
OS2WinDescent: 0
OS2WinDOffset: 1
HheadAscent: 0
HheadAOffset: 1
HheadDescent: 0
HheadDOffset: 1
OS2Vendor: 'PfEd'
MarkAttachClasses: 1
DEI: 91125
Encoding: ISO8859-1
UnicodeInterp: none
NameList: Adobe Glyph List
DisplaySize: -72
AntiAlias: 1
FitToEm: 1
WidthSeparation: 30
WinInfo: 96 8 6
BeginPrivate: 0
EndPrivate
Grid
322 450 m 25
 112 0 l 1049
120 0 m 25
 0 0 l 25
 210 450 l 25
 330 450 l 25
 120 0 l 25
-1024 450 m 0
 2048 450 l 1024
EndSplineSet
BeginChars: 256 254

StartChar: s
Encoding: 115 115 1
Width: 455
VWidth: 0
Flags: HMW
LayerCount: 3
Back
SplineSet
98 305 m 3
 98 405 189 467 289 467 c 3
 382 467 434 435 434 365 c 3
 434 330 412 304 377 304 c 3
 340 304 327 345 327 365 c 3
 327 384 341 383 341 411 c 3
 341 423 326 428 300 428 c 3
 242 428 219 395 213 386 c 0
 208 380 201 364 201 358 c 3
 201 278 374 303 374 137 c 3
 374 82 327 31 275 5 c 1
 246 -10 201 -12 173 -12 c 0
 169 -12 165 -12 162 -12 c 3
 118 -12 66 8 43 35 c 0
 26 54 19 84 19 112 c 11
 19 154 50 189 92 189 c 27
 119 189 144 168 144 141 c 3
 144 86 113 93 101 76 c 0
 98 73 97 68 97 65 c 0
 97 60 102 55 105 50 c 0
 114 38 130 29 168 29 c 3
 212 29 280 54 280 115 c 3
 280 157 211 173 192 185 c 0
 172 197 98 232 98 305 c 3
EndSplineSet
Fore
SplineSet
291 467 m 27
 359 467 435 434 435 368 c 3
 435 335 411 305 378 305 c 27
 349 305 326 329 326 358 c 3
 326 383 346 393 346 406 c 3
 346 425 316 429 293 429 c 27
 245 429 196 396 196 354 c 3
 196 273 373 267 373 139 c 3
 373 42 272 -17 173 -17 c 27
 94 -17 17 33 17 113 c 3
 17 154 48 189 89 189 c 27
 117 189 144 170 144 141 c 3
 144 82 97 87 97 65 c 3
 97 40 133 22 164 22 c 27
 220 22 279 53 279 109 c 3
 279 193 99 200 99 313 c 3
 99 411 195 467 291 467 c 27
EndSplineSet
EndChar

StartChar: e
Encoding: 101 101 2
Width: 449
VWidth: 0
Flags: HMW
LayerCount: 3
Back
SplineSet
183 272 m 2
 183 259 199 257 212 257 c 27
 232 257 254 258 262 266 c 0
 309 309 353 363 353 410 c 3
 353 430 328 439 307 439 c 16
 290 439 276 433 264 426 c 0
 241 411 183 300 183 278 c 2
 183 272 l 2
323 152 m 2
 337 152 336 138 338 129 c 17
 338 122 l 2
 338 117 338 113 336 108 c 0
 328 86 235 -12 148 -12 c 3
 87 -12 19 60 19 121 c 3
 19 179 33 222 52 265 c 0
 60 282 172 467 324 467 c 3
 376 467 415 410 415 358 c 3
 415 332 394 291 386 282 c 0
 378 273 349 251 323 239 c 0
 244 204 204 209 169 206 c 1
 128 171 98 120 98 79 c 3
 98 60 134 38 162 38 c 3
 260 38 296 152 318 152 c 2
 323 152 l 2
EndSplineSet
Fore
SplineSet
312 431 m 0
 253 431 200 323 169 252 c 2
 162 236 l 1
 247 241 286 278 320 326 c 0
 363 389 350 431 312 431 c 0
148 201 m 1
 115 112 103 22 164 22 c 0
 227 22 280 96 311 162 c 1
 341 146 l 1
 307 68 239 -17 153 -17 c 0
 72 -17 30 54 30 125 c 0
 30 293 168 467 311 467 c 0
 386 467 414 406 414 364 c 0
 414 245 270 209 148 201 c 1
EndSplineSet
EndChar

StartChar: p
Encoding: 112 112 3
Width: 609
VWidth: 0
Flags: HMW
LayerCount: 3
Back
SplineSet
401 419 m 7
 399 419 399 419 397 419 c 4
 385 419 363 418 347 403 c 5
 233 313 201 133 201 106 c 7
 201 75 221 35 241 35 c 7
 289 35 349 116 377 192 c 5
 389 220 393 240 401 263 c 4
 415 311 449 369 449 383 c 7
 449 414 423 419 401 419 c 7
171 361 m 6
 173 366 179 379 179 393 c 4
 179 408 173 421 155 421 c 7
 83 421 25 266 3 266 c 7
 -5 266 -7 274 -7 282 c 7
 -7 325 97 467 173 467 c 7
 215 467 247 439 257 397 c 12
 259 384 265 372 279 372 c 7
 289 372 329 419 365 440 c 28
 381 450 395 454 413 454 c 7
 471 454 511 406 511 341 c 7
 511 200 421 78 327 12 c 5
 309 -2 259 -12 231 -12 c 7
 197 -12 183 12 147 12 c 31
 127 12 123 -12 115 -31 c 6
 35 -218 l 6
 33 -221 31 -225 31 -228 c 4
 31 -234 37 -239 53 -247 c 4
 67 -255 91 -251 91 -263 c 7
 91 -278 73 -284 57 -284 c 31
 19 -284 -3 -278 -41 -278 c 31
 -81 -278 -101 -285 -143 -285 c 7
 -149 -285 -185 -282 -185 -265 c 7
 -185 -253 -161 -245 -153 -243 c 5
 -123 -240 -87 -233 -75 -206 c 13
 -47 -127 -23 -86 9 -9 c 28
 53 93 75 154 119 255 c 28
 139 298 171 361 171 361 c 6
EndSplineSet
Fore
SplineSet
-150 -271 m 5
 -134 -237 l 5
 -66 -237 l 5
 206 345 l 2
 226 388 222 411 197 411 c 0
 160 411 110 335 74 256 c 1
 43 273 l 1
 85 365 153 467 228 467 c 0
 281 467 302 428 302 377 c 1
 346 427 397 467 450 467 c 0
 530 467 559 393 559 322 c 0
 559 154 415 -17 281 -17 c 0
 226 -17 193 7 174 42 c 1
 44 -237 l 5
 123 -237 l 5
 107 -271 l 5
 -150 -271 l 5
233 168 m 2
 190 74 224 28 271 28 c 0
 340 28 389 124 420 195 c 0
 466 297 501 424 438 424 c 0
 385 423 317 351 279 269 c 2
 233 168 l 2
EndSplineSet
EndChar

StartChar: r
Encoding: 114 114 4
Width: 552
VWidth: 0
Flags: HMW
LayerCount: 3
Back
SplineSet
147 299 m 6
 164 332 185 351 185 399 c 4
 185 423 177 428 165 428 c 7
 120 428 93 343 76 320 c 4
 64 305 43 296 35 296 c 7
 26 296 24 305 24 314 c 7
 24 322 33 336 45 351 c 4
 57 368 69 385 72 390 c 4
 80 402 128 467 180 467 c 31
 204 467 221 464 240 449 c 28
 265 429 253 381 286 381 c 4
 315 381 345 451 421 451 c 7
 454 451 486 419 486 384 c 7
 486 342 456 301 418 301 c 7
 383 301 379 331 379 358 c 7
 379 387 390 397 390 403 c 7
 390 406 389 406 387 406 c 7
 363 406 343 370 322 351 c 4
 300 332 284 330 264 287 c 5
 205 179 l 5
 205 179 146 72 127 20 c 4
 122 8 103 -17 86 -17 c 7
 69 -17 72 5 49 5 c 7
 34 5 25 2 10 2 c 7
 1 2 2 8 2 14 c 31
 2 28 6 36 12 48 c 28
 37 98 55 123 81 172 c 28
 107 221 147 299 147 299 c 6
EndSplineSet
Fore
SplineSet
193 345 m 2
 213 387 209 411 184 411 c 0
 147 411 97 335 61 256 c 1
 30 273 l 1
 72 365 140 467 215 467 c 0
 266 467 290 431 294 382 c 1
 335 447 379 467 422 467 c 0
 478 467 522 422 522 368 c 0
 522 320 491 273 444 273 c 0
 406 273 390 303 390 335 c 0
 390 360 408 380 408 396 c 0
 408 409 404 418 386 418 c 0
 351 418 312 341 272 258 c 1
 152 0 l 1
 32 0 l 1
 193 345 l 2
EndSplineSet
Layer: 2
SplineSet
266.5 328 m 5
 313.966 436.618 369 467 422.5 467 c 4
 478 467 521.5 422.241 521.5 367.5 c 31
 521.5 319.712 491.288 273 443.5 273 c 7
 406 273 390.5 303.189 390.5 335 c 31
 390.5 359.617 408.5 380.333 408.5 395.5 c 7
 408.5 409.412 403.667 418 386 418 c 4
 346.565 418 301.566 320.5 256 226 c 5
 266.5 328 l 5
193 345 m 5
 213 387 209 411 184 411 c 7
 147 411 97 335 61 256 c 13
 30 273 l 5
 72 365 140 467 215 467 c 7
 309 467 312 344 267 248 c 6
 152 0 l 13
 32 0 l 21
 193 345 l 5
848 343 m 1
 903 435 956 467 1010.5 467 c 0
 1066 467 1109.5 422.241 1109.5 367.5 c 27
 1109.5 319.712 1079.29 273 1031.5 273 c 3
 994 273 978.5 303.189 978.5 335 c 27
 978.5 359.617 996.5 380.333 996.5 395.5 c 3
 996.5 409.412 991.667 418 974 418 c 0
 934.565 418 877.143 323.544 832.466 240.618 c 1
 848 343 l 1
761 345 m 1
 781 387 777 411 752 411 c 3
 715 411 665 335 629 256 c 9
 598 273 l 1
 640 365 708 467 783 467 c 3
 877 467 880 344 835 248 c 2
 720 0 l 9
 600 0 l 17
 761 345 l 1
1548 343 m 1
 1609 426 1672 467 1732 467 c 0
 1795 467 1839.5 424.627 1839.5 367.5 c 27
 1839.5 319.712 1809.29 273 1761.5 273 c 3
 1724 273 1708.5 303.189 1708.5 335 c 27
 1708.5 359.617 1726.5 380.333 1726.5 395.5 c 3
 1726.5 409.412 1721.67 418 1704 418 c 0
 1664.57 418 1577.14 323.544 1532.47 240.618 c 1
 1548 343 l 1
1461 345 m 1
 1481 387 1477 411 1452 411 c 3
 1415 411 1365 335 1329 256 c 9
 1298 273 l 1
 1340 365 1408 467 1483 467 c 3
 1577 467 1580 344 1535 248 c 2
 1420 0 l 9
 1300 0 l 17
 1461 345 l 1
EndSplineSet
EndChar

StartChar: m
Encoding: 109 109 5
Width: 782
VWidth: 0
Flags: HMW
LayerCount: 3
Back
SplineSet
175 467 m 3
 236 467 247 392 261 377 c 0
 263 375 266 374 268 374 c 0
 271 374 272 376 274 377 c 0
 324 415 351 463 409 463 c 3
 472 463 476 368 482 361 c 0
 484 358 487 357 490 357 c 0
 493 357 497 359 500 361 c 0
 512 369 583 460 640 460 c 3
 683 460 699 398 699 358 c 3
 699 335 690 299 676 268 c 1
 664 245 653 198 638 164 c 0
 619 121 597 99 597 61 c 3
 597 44 613 43 619 43 c 3
 670 43 709 154 730 154 c 3
 736 154 739 148 739 142 c 3
 739 129 721 88 707 73 c 0
 701 67 685 47 668 30 c 0
 647 9 632 -12 581 -12 c 3
 533 -12 515 43 515 91 c 3
 515 177 618 337 618 396 c 3
 618 404 615 413 607 413 c 3
 591 413 521 336 511 323 c 24
 481 281 462 258 440 211 c 25
 414 159 408 125 386 71 c 24
 373 41 368 -6 349 -6 c 3
 333 -6 325 -2 309 -2 c 27
 288 -2 283 -14 254 -14 c 3
 242 -14 241 -9 241 -3 c 3
 241 33 394 293 394 384 c 3
 394 396 387 410 375 410 c 3
 337 410 301 361 283 335 c 16
 273 319 256 290 247 270 c 8
 227 227 215 205 196 162 c 24
 179 125 165 84 157 64 c 0
 140 19 153 -6 127 -6 c 3
 112 -6 105 0 90 0 c 27
 71 0 62 -12 43 -12 c 27
 37 -12 32 -8 32 -2 c 26
 32 17 l 2
 32 32 57 92 76 141 c 24
 99 202 119 235 141 296 c 25
 156 334 170 355 170 397 c 27
 170 409 159 413 147 413 c 27
 124 413 109 397 97 377 c 1
 74 334 l 2
 68 322 70 315 57 298 c 0
 52 291 40 283 35 283 c 3
 30 283 19 291 19 301 c 3
 19 313 67 391 96 422 c 0
 113 441 152 467 175 467 c 3
EndSplineSet
Fore
SplineSet
161 345 m 2
 180.672 387.155 177 411 152 411 c 0
 115 411 65 335 29 256 c 1
 -2 273 l 1
 40 365 108 467 183 467 c 0
 244.372 467 266.784 414.648 262.535 351.536 c 1
 316.423 425.073 364.382 467 417 467 c 4
 470.612 467 493.236 422.435 493.002 365.97 c 1
 541.988 430.534 586.364 467 640 467 c 0
 739 467 722 340 659 216 c 2
 602 105 l 2
 581 62 586 39 612 39 c 0
 648 39 687 96 718 162 c 1
 748 146 l 1
 714 68 656 -17 580 -17 c 0
 486 -17 462.535 76.6856 534 199 c 2
 586 288 l 2
 611 331 649 411 601 411 c 0
 559.5 411 497.331 317.723 465 248 c 2
 350 0 l 1
 230 0 l 1
 391 345 l 2
 410.927 387.701 407 411 385 411 c 0
 340.519 411 269.667 312.936 224.811 226.026 c 1
 120 0 l 1
 0 0 l 1
 161 345 l 2
EndSplineSet
Layer: 2
SplineSet
385 411 m 3
 336 411 255 292 212 200 c 9
 225 297 l 17
 295 404 352.5 467 417 467 c 0
 506 467 510 344 465 248 c 2
 350 0 l 9
 230 0 l 17
 391 345 l 2
 410.927 387.701 407 411 385 411 c 3
445 297 m 17
 515 404 569.5 467 640 467 c 0
 739 467 722 340 659 216 c 2
 602 105 l 2
 581 62 586 39 612 39 c 3
 648 39 687 96 718 162 c 9
 748 146 l 1
 714 68 656 -17 580 -17 c 3
 486 -17 462 77 534 199 c 2
 586 288 l 2
 611 331 649 411 601 411 c 3
 555 411 475 292 432 200 c 9
 445 297 l 17
161 345 m 5
 181 387 177 411 152 411 c 7
 115 411 65 335 29 256 c 13
 -2 273 l 5
 40 365 108 467 183 467 c 7
 277 467 280 344 235 248 c 6
 120 0 l 13
 0 0 l 21
 161 345 l 5
EndSplineSet
EndChar

StartChar: a
Encoding: 97 97 6
Width: 540
VWidth: 0
Flags: HMW
LayerCount: 3
Back
SplineSet
287 415 m 3
 263 415 229 390 216 362 c 0
 178 275 109 160 109 61 c 3
 109 45 125 44 139 44 c 0
 140 44 142 44 143 44 c 3
 222 44 342 250 342 365 c 3
 342 393 315 415 287 415 c 3
291 467 m 3
 346 467 347 420 390 420 c 3
 412 420 414 443 426 443 c 3
 435 443 439 439 448 439 c 27
 461 439 467 443 480 443 c 19
 485 443 486 440 486 435 c 0
 486 432 485 424 485 421 c 3
 485 378 464 349 449 313 c 24
 434 276 428 253 413 216 c 24
 398 179 359 100 359 65 c 3
 359 45 369 36 383 36 c 19
 418 36 440 73 459 99 c 0
 467 111 480 158 502 158 c 3
 507 158 515 149 515 143 c 3
 515 135 510 132 507 125 c 0
 490 92 463 -19 355 -19 c 3
 260 -19 298 61 258 61 c 3
 223 61 191 -12 97 -12 c 3
 60 -12 19 51 19 106 c 3
 19 187 71 315 137 385 c 0
 186 436 256 467 291 467 c 3
EndSplineSet
Fore
SplineSet
296 418 m 0
 238 418 188 323 157 252 c 0
 111 150 82 30 145 30 c 0
 197 30 249 116 301 229 c 2
 319 269 l 2
 347 328 340 418 296 418 c 0
513.299 450 m 1
 352 105 l 2
 332 62 336 39 361 39 c 0
 398 39 448 115 484 194 c 1
 515 177 l 1
 473 85 405 -17 330 -17 c 0
 281 -17 260 16 256 62 c 1
 218 12 174 -17 130 -17 c 0
 41 -17 18 54 18 125 c 0
 18 293 164 467 282 467 c 0
 333 467 359 430 372 384 c 1
 402.818 450 l 1
 513.299 450 l 1
EndSplineSet
EndChar

StartChar: c
Encoding: 99 99 7
Width: 449
VWidth: 0
Flags: HMW
LayerCount: 3
Back
SplineSet
321 467 m 3
 364 467 397 408 397 357 c 27
 397 328 382 296 370 287 c 0
 360 280 343 280 326 280 c 3
 309 280 289 304 289 326 c 3
 289 376 339 390 339 418 c 3
 339 430 331 436 319 436 c 3
 289 436 254 415 237 396 c 0
 217 373 201 319 179 269 c 24
 165 240 155 223 143 193 c 24
 130 157 118 136 118 98 c 3
 118 50 150 38 169 38 c 3
 185 38 242 68 270 105 c 0
 297 140 295 166 311 166 c 3
 314 166 316 161 321 161 c 27
 324 161 325 162 328 162 c 3
 334 162 335 157 335 154 c 3
 335 134 256 -12 165 -12 c 3
 67 -12 38 70 38 140 c 3
 38 167 51 248 73 291 c 0
 90 322 104 347 123 368 c 0
 146 395 177 423 212 442 c 0
 226 450 263 467 321 467 c 3
EndSplineSet
Fore
SplineSet
314 429 m 0
 255 429 200 323 169 252 c 0
 123 150 88 22 159 22 c 3
 222 22 270 96 301 162 c 9
 331 146 l 1
 297 68 234 -17 148 -17 c 3
 68 -17 30 54 30 125 c 0
 30 293 168 467 306 467 c 0
 378 467 401 404 401 362 c 3
 401 313 378 278 337 278 c 27
 310 278 290 302 290 329 c 3
 290 379 340 386 340 407 c 3
 340 420 334 429 314 429 c 0
EndSplineSet
EndChar

StartChar: n
Encoding: 110 110 8
Width: 588
VWidth: 0
Flags: HMW
LayerCount: 3
Back
SplineSet
111 -12 m 3
 94 -12 84 -6 67 -6 c 0
 54 -6 46 -9 32 -9 c 3
 22 -9 16 -4 16 8 c 3
 16 55 57 113 69 137 c 0
 83 167 91 190 103 221 c 0
 123 280 147 319 174 368 c 0
 179 376 180 382 180 392 c 27
 180 405 160 412 154 412 c 3
 123 412 86 357 63 303 c 0
 58 291 41 264 24 264 c 3
 18 264 14 271 14 277 c 3
 14 318 77 404 116 433 c 0
 143 452 162 467 197 467 c 3
 234 467 255 433 262 393 c 0
 264 384 270 372 275 372 c 3
 302 372 353 456 417 456 c 3
 460 456 485 396 485 372 c 3
 485 247 365 115 365 49 c 3
 365 40 372 31 381 31 c 27
 450 31 479 158 506 158 c 3
 514 158 517 151 517 144 c 3
 517 104 446 -23 346 -23 c 3
 304 -23 270 19 270 71 c 3
 270 147 330 218 353 263 c 0
 369 294 403 359 403 381 c 3
 403 393 394 403 382 403 c 3
 312 403 197 192 158 51 c 0
 150 22 128 -12 111 -12 c 3
EndSplineSet
Fore
SplineSet
161 345 m 2
 180.672 387.155 177 411 152 411 c 0
 115 411 65 335 29 256 c 1
 -2 273 l 1
 40 365 108 467 183 467 c 0
 244.258 467 266.701 414.841 262.558 351.885 c 1
 315.771 425.206 362.579 467 420 467 c 0
 519 467 502 340 439 216 c 2
 382 105 l 2
 361 62 366 39 392 39 c 0
 428 39 467 96 498 162 c 1
 528 146 l 1
 494 68 436 -17 360 -17 c 0
 266 -17 242.535 76.6856 314 199 c 2
 366 288 l 2
 391 331 429 411 381 411 c 0
 339.325 411 269.742 313.324 225.05 226.543 c 1
 120 0 l 1
 0 0 l 1
 161 345 l 2
EndSplineSet
Layer: 2
SplineSet
225 297 m 17
 295 404 349.5 467 420 467 c 0
 519 467 502 340 439 216 c 2
 382 105 l 2
 361 62 366 39 392 39 c 3
 428 39 467 96 498 162 c 9
 528 146 l 1
 494 68 436 -17 360 -17 c 3
 266 -17 242 77 314 199 c 2
 366 288 l 2
 391 331 429 411 381 411 c 3
 335 411 255 292 212 200 c 9
 225 297 l 17
-553.64 104.691 m 1
 -393 450 l 9
 -513 450 l 17
 -628.285 202.132 l 2
 -672.852 106.311 -670 -17 -576 -17 c 3
 -500.5 -17 -442.208 68.2158 -407.5 145.5 c 1
 -438 162 l 17
 -468.623 95.5566 -508.469 39 -544.5 39 c 3
 -570.423 39 -573.6 63 -553.64 104.691 c 1
-552.64 104.691 m 1
 -392 450 l 9
 -512 450 l 17
 -627.285 202.132 l 2
 -671.852 106.311 -669 -17 -575 -17 c 3
 -499.5 -17 -431.667 85.333 -390.5 177 c 1
 -421 193.5 l 17
 -457.333 114.667 -507.469 39 -543.5 39 c 3
 -569.423 39 -572.6 63 -552.64 104.691 c 1
-771.36 345.309 m 1
 -932 0 l 9
 -812 0 l 17
 -696.715 247.868 l 2
 -652.148 343.689 -655 467 -749 467 c 3
 -824.5 467 -892.333 364.667 -933.5 273 c 1
 -903 256.5 l 17
 -866.667 335.333 -816.531 411 -780.5 411 c 3
 -754.577 411 -751.4 387 -771.36 345.309 c 1
161 345 m 5
 0 0 l 13
 120 0 l 21
 235 248 l 6
 280 344 277 467 183 467 c 7
 108 467 40 365 -2 273 c 5
 29 256 l 21
 65 335 115 411 152 411 c 7
 177 411 181 387 161 345 c 5
EndSplineSet
EndChar

StartChar: o
Encoding: 111 111 9
Width: 424
VWidth: 0
Flags: HMW
LayerCount: 3
Back
SplineSet
293 419 m 3
 280 419 242 412 220 390 c 0
 189 359 97 158 97 100 c 3
 97 71 119 47 148 47 c 3
 220 47 262 128 291 209 c 0
 319 287 337 364 337 378 c 3
 337 395 326 419 293 419 c 3
277 467 m 3
 317 467 349 457 372 438 c 0
 402 414 426 361 426 311 c 3
 426 268 421 247 407 204 c 0
 392 157 376 131 348 94 c 0
 333 75 324 66 305 51 c 0
 279 32 263 24 233 10 c 0
 207 -2 173 -12 133 -12 c 3
 107 -12 90 0 73 12 c 0
 25 46 19 100 19 158 c 11
 19 210 30 239 53 286 c 24
 80 338 107 375 145 404 c 0
 190 439 220 467 277 467 c 3
EndSplineSet
Fore
SplineSet
283 424 m 0
 224 423 170 323 139 252 c 0
 93 150 58 28 122 28 c 0
 180 28 234 124 265 195 c 0
 311 297 346 424 283 424 c 0
126 -17 m 0
 33 -17 0 54 0 125 c 0
 0 293 138 467 276 467 c 0
 370 467 404 393 404 322 c 0
 404 154 260 -17 126 -17 c 0
EndSplineSet
EndChar

StartChar: t
Encoding: 116 116 10
Width: 357
VWidth: 0
Flags: HMW
LayerCount: 3
Back
SplineSet
100 -20 m 3
 58 -20 30 25 30 59 c 0
 30 96 40 119 52 154 c 8
 69 210 85 239 104 294 c 16
 112 316 121 340 129 357 c 0
 137 374 144 387 144 410 c 3
 144 437 93 407 93 449 c 3
 93 455 103 472 123 472 c 3
 133 472 140 467 150 467 c 0
 151 467 l 0
 202 467 215 534 235 589 c 0
 247 616 289 667 318 667 c 0
 342 667 337 677 356 677 c 8
 363 677 368 671 368 664 c 3
 368 640 296 522 296 479 c 3
 296 465 313 458 327 458 c 3
 344 458 358 454 358 438 c 3
 358 404 319 403 295 403 c 0
 292 403 289 403 286 403 c 3
 285 403 281 403 280 403 c 0
 268 403 262 403 250 389 c 0
 216 342 209 291 182 230 c 24
 165 188 153 165 136 122 c 16
 127 101 115 87 115 66 c 0
 115 60 125 50 131 50 c 3
 157 50 183 83 202 118 c 0
 219 151 229 185 243 185 c 3
 250 185 261 175 261 166 c 3
 261 142 236 97 217 66 c 0
 189 19 164 -20 100 -20 c 3
EndSplineSet
Fore
SplineSet
159.145 430 m 1
 220.651 561.615 l 1
 341.817 583.881 l 1
 269.444 430 l 1
 351.999 430 l 1
 335.999 396 l 1
 253.453 396 l 1
 118 108 l 2
 97.8174 65.0869 102 42 127 42 c 0
 164 42 214 118 250 197 c 1
 281 180 l 1
 239 88 171 -14 96 -14 c 0
 2 -14 9.11324 108.947 54 205 c 2
 143.257 396 l 1
 57.0029 396 l 1
 73 430 l 1
 159.145 430 l 1
EndSplineSet
Layer: 2
SplineSet
335.999 396 m 5
 57.0029 396 l 5
 73 430 l 5
 351.999 430 l 5
 335.999 396 l 5
341.817 583.881 m 5
 118 108 l 6
 97.8174 65.0869 102 42 127 42 c 7
 164 42 214 118 250 197 c 13
 281 180 l 5
 239 88 171 -14 96 -14 c 7
 2 -14 9 109 54 205 c 4
 220.651 561.615 l 5
 341.817 583.881 l 5
EndSplineSet
EndChar

StartChar: l
Encoding: 108 108 11
Width: 344
VWidth: 0
Flags: HMW
LayerCount: 3
Back
SplineSet
370 264 m 0
 383 292 414 326 414 374 c 3
 414 386 405 396 393 396 c 3
 316 396 258 315 224 257 c 0
 208 230 200 214 187 185 c 24
 167 134 154 101 141 51 c 0
 133 22 111 -12 94 -12 c 3
 77 -12 77 -7 60 -7 c 0
 47 -7 43 -10 29 -10 c 3
 21 -10 22 -4 22 8 c 3
 22 55 62 113 74 137 c 0
 88 167 151 319 178 368 c 0
 183 376 224 481 250 555 c 24
 263 591 277 629 277 648 c 3
 277 686 230 669 230 695 c 19
 230 710 262 712 274 712 c 2
 323 712 l 18
 353 712 382 700 382 677 c 3
 382 642 358 612 341 571 c 24
 315 508 289 455 273 411 c 0
 272 409 272 406 272 405 c 0
 272 397 280 396 292 396 c 3
 319 396 364 449 428 449 c 3
 471 449 496 389 496 365 c 3
 496 348 488 309 475 275 c 24
 461 234 446 216 429 176 c 24
 408 126 376 71 376 49 c 3
 376 40 383 31 392 31 c 27
 462 31 498 152 525 152 c 3
 533 152 537 144 537 137 c 3
 537 97 457 -23 357 -23 c 3
 315 -23 293 -13 293 71 c 3
 293 102 310 137 327 173 c 0
 344 208 358 240 370 264 c 0
EndSplineSet
Fore
SplineSet
249.42 625.667 m 6
 52 202 l 6
 7 106 0 -17 94 -17 c 7
 169 -17 237 85 279 177 c 5
 248 194 l 21
 212 115 162 39 125 39 c 7
 100 39 96 62 116 105 c 6
 404 721 l 13
 226 721 l 21
 210 687 l 5
 227 687 l 6
 261 687 266.635 662.61 249.42 625.667 c 6
EndSplineSet
EndChar

StartChar: g
Encoding: 103 103 12
Width: 579
VWidth: 0
Flags: HMW
LayerCount: 3
Back
SplineSet
99 -55 m 27
 77 -55 63 -54 39 -54 c 3
 -4 -54 -57 -102 -57 -137 c 3
 -57 -208 76 -222 105 -222 c 3
 139 -222 177 -217 214 -208 c 0
 278 -193 313 -168 313 -104 c 3
 313 -61 262 -51 220 -51 c 27
 172 -51 147 -55 99 -55 c 27
212 166 m 3
 229 166 248 171 263 178 c 0
 310 200 345 320 345 360 c 3
 345 405 331 417 294 417 c 3
 247 417 173 291 173 204 c 3
 173 183 197 166 212 166 c 3
323 467 m 3
 386 467 381 418 431 418 c 0
 434 418 438 418 441 418 c 3
 447 418 452 429 464 441 c 0
 476 451 501 460 518 460 c 3
 562 460 578 435 580 425 c 0
 581 419 581 406 581 394 c 0
 581 360 565 333 538 333 c 3
 511 333 480 346 480 375 c 2
 480 377 l 2
 480 385 480 394 468 394 c 11
 444 394 440 345 438 339 c 0
 414 255 384 178 330 143 c 0
 272 106 59 145 59 71 c 3
 59 42 104 27 141 27 c 27
 181 27 204 38 244 38 c 3
 339 38 380 -12 380 -83 c 19
 380 -191 278 -242 164 -254 c 0
 147 -256 127 -258 110 -258 c 3
 -19 -258 -94 -198 -94 -137 c 3
 -94 -114 -71 -81 -55 -67 c 0
 -31 -45 2 -41 2 -12 c 3
 2 5 -10 18 -10 35 c 27
 -10 65 2 93 16 106 c 0
 57 146 81 140 104 162 c 0
 109 167 111 179 111 187 c 0
 111 190 110 192 110 193 c 8
 103 217 98 233 98 259 c 3
 98 347 171 436 249 458 c 0
 271 465 296 467 323 467 c 3
EndSplineSet
Fore
SplineSet
292 430 m 0
 240 430 201 374 181 306 c 0
 175 284 166 251 166 222 c 0
 166 189 178 160 219 160 c 0
 270 160 306 213 326 277 c 0
 333 300 341 334 341 364 c 0
 341 400 330 430 292 430 c 0
238 38 m 0
 309 38 373 0 373 -83 c 0
 373 -210 234 -259 100 -259 c 0
 9 -259 -100 -216 -100 -140 c 0
 -100 -93 -53 -50 11 -18 c 1
 -6 -2 -17 18 -17 43 c 0
 -17 115 70 141 139 153 c 1
 109 178 90 217 90 259 c 0
 90 369 190 468 308 468 c 0
 354 468 400 442 419 390 c 1
 439 436 484 461 521 461 c 0
 562 461 579 430 579 397 c 0
 579 352 546 316 514 316 c 0
 481 316 463 347 463 380 c 0
 463 387 464 393 465 399 c 1
 437 395 430 350 425 310 c 0
 411 205 324 124 216 124 c 0
 214 124 211 124 208 124 c 0
 171 124 51 122 51 69 c 0
 51 41 97 30 131 30 c 0
 166 30 203 38 238 38 c 0
85 -45 m 2
 31 -45 2 -56 -30 -86 c 0
 -48 -102 -58 -119 -58 -134 c 0
 -58 -188 31 -219 101 -219 c 0
 191 -219 306 -181 306 -111 c 0
 306 -50 239 -46 167 -46 c 2
 85 -45 l 2
EndSplineSet
Layer: 2
SplineSet
429.5 308 m 13
 414.5 362.5 l 21
 437.5 425 460.5 461 535 461 c 13
 484.5 392.5 l 21
 453.5 420 436 363.5 429.5 308 c 13
470 380 m 4
 470 425 503 461 535 461 c 4
 568 461 586 430 586 397 c 4
 586 352 553 316 521 316 c 4
 488 316 470 347 470 380 c 4
199 -15 m 5
 76 -8 -51 -80 -51 -134 c 7
 -51 -188 37.6855 -219 108 -219 c 31
 198.366 -219 313 -181 313 -111 c 7
 313 -19 163 -56 70 -42 c 4
 27 -35 -10 -2.52344 -10 43 c 31
 -10 136.243 133.5 151.5 198.5 160 c 13
 223 124 l 21
 204 124 58 127 58 69 c 7
 58 30 146 22 195 33 c 5
 199 -15 l 5
245 38 m 7
 316 38 380 0 380 -83 c 7
 380 -210 241 -259 107 -259 c 7
 16 -259 -93 -216 -93 -140 c 7
 -93 -44 103 38 245 38 c 7
299 430 m 7
 247 430 208 374 188 306 c 4
 174 259 149 160 226 160 c 7
 277 160 313 213 333 277 c 4
 349 327 369 430 299 430 c 7
315 468 m 7
 374 468 434 425 434 340 c 7
 434 220 341 124 223 124 c 31
 151 124 97 188 97 259 c 7
 97 369 197 468 315 468 c 7
EndSplineSet
EndChar

StartChar: period
Encoding: 46 46 14
Width: 224
VWidth: 0
Flags: MW
LayerCount: 3
Fore
SplineSet
71 -12 m 0
 42 -12 19 20 19 54 c 0
 19 85 48 106 83 106 c 0
 109 106 124 72 124 41 c 0
 124 11 95 -12 71 -12 c 0
EndSplineSet
Validated: 1
EndChar

StartChar: i
Encoding: 105 105 15
Width: 338
VWidth: 0
Flags: HMW
LayerCount: 3
Back
SplineSet
378 697 m 3
 416 697 418 672 418 646 c 2
 418 641 l 2
 418 620 386 573 348 573 c 3
 327 573 308 606 308 635 c 3
 308 664 349 697 378 697 c 3
293 172 m 3
 293 137 230 -10 144 -10 c 2
 140 -10 l 2
 77 -10 48 55 48 84 c 3
 48 166 168 327 168 379 c 3
 168 389 158 397 148 397 c 27
 124 397 111 382 98 367 c 0
 89 357 78 344 65 323 c 1
 62 316 58 311 50 311 c 27
 43 311 40 319 40 326 c 3
 40 332 50 342 57 354 c 24
 87 404 123 467 205 467 c 3
 259 467 271 426 271 377 c 3
 271 270 163 140 163 79 c 3
 163 72 164 62 171 62 c 26
 183 62 l 2
 213 62 224 103 241 137 c 0
 254 163 273 183 282 183 c 3
 290 183 293 179 293 172 c 3
EndSplineSet
Fore
SplineSet
309.429 662.164 m 0
 325.991 697.685 362.983 715.531 392 702 c 0
 421.017 688.47 431.123 648.66 414.56 613.141 c 0
 397.997 577.62 361.005 559.773 331.988 573.305 c 0
 302.972 586.835 292.865 626.645 309.429 662.164 c 0
213.232 216 m 2
 156.234 105 l 2
 134.375 62.4307 140.234 39 166.234 39 c 3
 202.234 39 241.234 96 272.234 162 c 9
 302.234 146 l 1
 268.234 68 210.234 -17 134.234 -17 c 3
 40.2344 -17 21.4814 74.0537 88.2344 199 c 2
 166.235 345 l 2
 188.785 387.208 182.234 411 156.234 411 c 3
 120.234 411 81.2344 354 50.2344 288 c 9
 20.2344 304 l 1
 54.2344 382 112.234 467 188.234 467 c 3
 282.234 467 287.396 360.43 213.232 216 c 2
EndSplineSet
Layer: 2
SplineSet
212.998 216 m 6
 156 105 l 6
 134.141 62.4307 140 39 166 39 c 7
 202 39 241 96 272 162 c 13
 302 146 l 5
 268 68 210 -17 134 -17 c 7
 40 -17 21.2471 74.0537 88 199 c 6
 166.001 345 l 6
 188.551 387.208 182 411 156 411 c 7
 120 411 81 354 50 288 c 13
 20 304 l 5
 54 382 112 467 188 467 c 7
 282 467 287.162 360.43 212.998 216 c 6
-174 345 m 5
 -335 0 l 13
 -215 0 l 21
 -100 248 l 6
 -55 344 -58 467 -152 467 c 7
 -227 467 -295 365 -337 273 c 5
 -306 256 l 21
 -270 335 -220 411 -183 411 c 7
 -158 411 -154 387 -174 345 c 5
EndSplineSet
EndChar

StartChar: u
Encoding: 117 117 16
Width: 609
VWidth: 0
Flags: HMW
LayerCount: 3
Back
SplineSet
189 467 m 0
 238 467 281 415 281 385 c 3
 281 250 176 135 176 83 c 3
 176 73 183 61 193 61 c 27
 229 61 244 91 266 119 c 24
 318 184 338 227 383 298 c 24
 400 325 410 340 425 369 c 24
 437 390 438 416 447 428 c 0
 456 438 469 439 481 439 c 3
 504 439 532 430 532 407 c 3
 532 390 510 379 493 325 c 0
 476 273 467 242 452 190 c 24
 438 141 419 92 419 64 c 3
 419 50 424 47 433 47 c 3
 454 47 483 75 502 109 c 0
 523 145 536 186 560 186 c 3
 576 186 578 176 578 159 c 2
 578 157 l 2
 578 140 562 125 549 106 c 0
 541 92 528 76 521 59 c 0
 508 31 458 -19 404 -19 c 3
 359 -19 319 27 319 70 c 3
 319 79 318 87 302 87 c 3
 264 87 221 -13 156 -13 c 3
 99 -13 75 25 75 69 c 3
 75 169 117 233 161 310 c 0
 173 330 191 361 191 384 c 3
 191 401 167 404 154 404 c 3
 141 404 117 380 98 357 c 0
 83 340 78 318 75 313 c 0
 61 294 54 273 31 273 c 3
 26 273 19 292 19 298 c 3
 19 315 118 467 189 467 c 0
EndSplineSet
Fore
SplineSet
229 216 m 2
 172 105 l 2
 150 62 157 36 189 36 c 0
 230 36 294 120 334 194 c 1
 338 202 l 1
 453 450 l 1
 573 450 l 1
 412 105 l 2
 392 63 396 39 421 39 c 0
 458 39 508 115 544 194 c 1
 575 177 l 1
 533 85 465 -17 390 -17 c 0
 334 -17 310 27 310 84 c 1
 264 22 209 -17 160 -17 c 0
 68 -17 37 74 104 199 c 2
 182 345 l 2
 205 387 198 411 172 411 c 0
 136 411 97 354 66 288 c 1
 36 304 l 1
 70 382 128 467 204 467 c 0
 298 467 303 360 229 216 c 2
EndSplineSet
Layer: 2
SplineSet
412 105 m 1
 573 450 l 9
 453 450 l 17
 338 202 l 2
 293 106 296 -17 390 -17 c 3
 465 -17 533 85 575 177 c 1
 544 194 l 17
 508 115 458 39 421 39 c 3
 396 39 392 63 412 105 c 1
228.998 216 m 6
 172 105 l 6
 150.141 62.4307 168 39 192 39 c 7
 228 39 309.5 138 346 217 c 13
 376 201 l 5
 325 77 236 -17 160 -17 c 7
 68.5 -17 37.2471 74.0537 104 199 c 6
 182.001 345 l 6
 204.551 387.208 198 411 172 411 c 7
 136 411 97 354 66 288 c 13
 36 304 l 5
 70 382 128 467 204 467 c 7
 298 467 303.162 360.43 228.998 216 c 6
EndSplineSet
EndChar

StartChar: v
Encoding: 118 118 17
Width: 496
VWidth: 0
Flags: HMW
LayerCount: 3
Back
SplineSet
206 467 m 7
 246 467 280 431 280 368 c 7
 280 281 158 157 158 85 c 7
 158 61 178 40 202 40 c 7
 258 40 398 190 398 299 c 4
 398 312 394 329 384 332 c 4
 354 344 332 364 332 397 c 28
 332 416 336 427 350 441 c 28
 362 454 382 458 392 458 c 4
 404 458 414 458 422 449 c 28
 438 428 454 407 454 386 c 7
 454 287 422 183 336 85 c 4
 286 27 240 -10 166 -10 c 4
 112 -10 66 30 66 84 c 7
 66 113 74 140 82 164 c 4
 126 301 188 340 188 378 c 7
 188 400 172 403 156 403 c 31
 144 403 138 398 130 390 c 4
 118 377 116 378 108 371 c 4
 92 359 86 351 78 337 c 4
 72 330 70 323 60 323 c 31
 56 323 54 328 54 333 c 7
 54 349 74 375 88 398 c 4
 110 438 156 467 206 467 c 7
EndSplineSet
Fore
SplineSet
192 39 m 3
 168 39 150 62 172 105 c 2
 229 216 l 2
 303 360 298 467 204 467 c 3
 128 467 70 382 36 304 c 1
 66 288 l 17
 97 354 136 411 172 411 c 3
 198 411 205 387 182 345 c 2
 104 199 l 2
 37 74 68 -17 160 -17 c 3
 289 -17 456 188 456 381 c 27
 456 422 435 467 394 467 c 27
 359 467 332 434 332 401 c 3
 332 339 387 341 393 323 c 0
 417 244 281 39 192 39 c 3
EndSplineSet
EndChar

StartChar: b
Encoding: 98 98 18
Width: 533
VWidth: 0
Flags: HMW
LayerCount: 3
Back
SplineSet
368 403 m 7
 337 403 320 378 300 354 c 4
 281 330 270 312 254 293 c 4
 198 224 159 144 159 87 c 7
 159 65 172 48 200 48 c 7
 262 48 313 121 358 211 c 4
 384 263 413 307 413 374 c 31
 413 395 390 403 368 403 c 7
341 671 m 15
 365 671 399 665 399 641 c 7
 399 620 342 545 342 474 c 7
 342 458 353 460 363 460 c 14
 382 460 392 469 411 469 c 7
 483 469 496 395 496 346 c 7
 496 166 330 -10 205 -10 c 7
 171 -10 115 7 92 49 c 4
 83 66 82 84 82 100 c 4
 82 102 82 106 82 108 c 7
 82 169 104 201 126 257 c 28
 160 341 196 382 226 467 c 4
 263 569 280 567 280 602 c 7
 280 614 270 627 258 627 c 7
 246 627 244 620 236 620 c 7
 230 620 224 636 224 648 c 20
 224 656 228 664 236 664 c 12
 248 664 254 663 266 663 c 20
 295 663 312 671 341 671 c 15
EndSplineSet
Fore
SplineSet
368.604 425.661 m 3
 332.604 425.661 302.9 392.952 280.07 344 c 2
 216.176 207 l 2
 161.187 89.0957 149.604 26 192.604 26 c 3
 243.104 26 296.458 82.8906 367.604 226 c 0
 424.883 341.217 428.87 425.661 368.604 425.661 c 3
331.02 453.667 m 1
 331.02 453.667 362.104 467 390.604 467 c 3
 460.149 467 493 415.579 493 343.766 c 0
 493 183.704 352.977 -17 200.604 -17 c 3
 59.6035 -17 68.9102 125.401 136.756 271 c 2
 302.023 625.667 l 2
 319.238 662.61 313.604 687 279.604 687 c 2
 262.604 687 l 1
 278.604 721 l 9
 456.604 721 l 17
 331.02 453.667 l 1
EndSplineSet
EndChar

StartChar: h
Encoding: 104 104 19
Width: 560
VWidth: 0
Flags: HMW
LayerCount: 3
Back
SplineSet
386 264 m 4
 399 292 430 326 430 374 c 7
 430 386 421 396 409 396 c 7
 332 396 274 315 240 257 c 4
 224 230 216 214 203 185 c 28
 183 134 170 101 157 51 c 4
 149 22 127 -12 110 -12 c 7
 93 -12 93 -7 76 -7 c 4
 63 -7 59 -10 45 -10 c 7
 37 -10 38 -4 38 8 c 7
 38 55 78 113 90 137 c 4
 104 167 167 319 194 368 c 4
 199 376 240 481 266 555 c 28
 279 591 293 629 293 648 c 7
 293 686 246 669 246 695 c 23
 246 710 278 712 290 712 c 6
 339 712 l 22
 369 712 398 700 398 677 c 7
 398 642 374 612 357 571 c 28
 331 508 305 455 289 411 c 4
 288 409 288 406 288 405 c 4
 288 397 296 396 308 396 c 7
 335 396 380 449 444 449 c 7
 487 449 512 389 512 365 c 7
 512 348 504 309 491 275 c 28
 477 234 462 216 445 176 c 28
 424 126 392 71 392 49 c 7
 392 40 399 31 408 31 c 31
 478 31 514 152 541 152 c 7
 549 152 553 144 553 137 c 7
 553 97 473 -23 373 -23 c 7
 331 -23 309 -13 309 71 c 7
 309 102 326 137 343 173 c 4
 360 208 374 240 386 264 c 4
EndSplineSet
Fore
SplineSet
95.001 0 m 1
 -15 0 l 1
 277.421 625.667 l 2
 294.679 662.593 289.001 687 255.001 687 c 2
 238.001 687 l 1
 254.001 721 l 1
 432.001 721 l 1
 288.106 413.142 l 1
 322.391 447.998 356.283 467 395.001 467 c 0
 494.001 467 477.001 340 414.001 216 c 2
 357.001 105 l 2
 336.001 62 341.001 39 367.001 39 c 0
 403.001 39 442.001 96 473.001 162 c 1
 503.001 146 l 1
 469.001 68 411.001 -17 335.001 -17 c 0
 241.001 -17 217.536 76.6855 289.001 199 c 2
 341.001 288 l 2
 366.001 331 404.001 411 356.001 411 c 0
 316.566 411 252.144 323.544 207.467 240.618 c 1
 95.001 0 l 1
EndSplineSet
Layer: 2
SplineSet
225 297 m 17
 295 404 349.5 467 420 467 c 0
 519 467 502 340 439 216 c 2
 382 105 l 2
 361 62 366 39 392 39 c 3
 428 39 467 96 498 162 c 9
 528 146 l 1
 494 68 436 -17 360 -17 c 3
 266 -17 242 77 314 199 c 2
 366 288 l 2
 391 331 429 411 381 411 c 3
 335 411 255 292 212 200 c 9
 225 297 l 17
120 -0 m 14
 9.99902 0 l 22
 302.42 625.667 l 6
 319.678 662.593 314 687 280 687 c 6
 263 687 l 5
 279 721 l 13
 457 721 l 21
 120 -0 l 14
EndSplineSet
EndChar

StartChar: q
Encoding: 113 113 20
Width: 540
VWidth: 0
Flags: HMW
LayerCount: 3
Back
SplineSet
108 -237 m 5
 238 41 l 1029
194 0 m 3
 159 0 156 -7 123 -7 c 3
 94 -7 58 3 42 29 c 0
 26 53 19 85 19 120 c 0
 19 181 45 256 114 344 c 0
 164 409 220 470 324 470 c 3
 343 470 366 465 392 456 c 24
 415 448 427 427 448 427 c 3
 457 427 459 427 465 433 c 0
 488 456 500 467 513 467 c 3
 518 467 524 456 524 450 c 3
 524 442 519 440 516 433 c 0
 499 398 494 391 482 369 c 0
 438 273 l 0
 396 168 321 -9 315 -22 c 2
 315 -22 267 -116 244 -179 c 16
 239 -191 239 -209 239 -218 c 0
 239 -221 239 -224 239 -225 c 0
 239 -242 299 -253 299 -269 c 3
 299 -281 292 -282 284 -282 c 0
 282 -282 278 -282 276 -282 c 11
 233 -282 208 -278 165 -278 c 27
 125 -278 105 -282 64 -282 c 3
 58 -282 23 -280 23 -263 c 3
 23 -251 70 -241 79 -239 c 0
 108 -236 122 -230 132 -202 c 0
 160 -125 172 -134 201 -54 c 0
 203 -49 211 -30 211 -14 c 27
 211 -5 207 0 194 0 c 3
136 191 m 0
 120 149 104 107 104 78 c 0
 104 54 116 38 149 38 c 3
 204 38 226 78 248 109 c 0
 264 131 361 265 361 387 c 3
 361 404 357 405 342 415 c 0
 326 427 317 429 305 429 c 3
 282 429 260 418 232 383 c 0
 163 296 148 219 136 191 c 0
EndSplineSet
Fore
SplineSet
539 450 m 1
 218 -237 l 1
 297 -237 l 1
 281 -271 l 1
 24 -271 l 1
 40 -237 l 1
 108 -237 l 1
 229 23 l 1
 204 5 165 -17 130 -17 c 0
 41 -17 18 54 18 125 c 0
 18 293 189 467 323 467 c 0
 384 467 422 425 438 371 c 9
 494 450 l 25
 539 450 l 1
326 425 m 0
 265 425 188 323 157 252 c 0
 111 150 82 30 145 30 c 0
 197 30 267 100 318 212 c 2
 350 282 l 2
 387 364 373 425 326 425 c 0
EndSplineSet
EndChar

StartChar: k
Encoding: 107 107 21
Width: 624
VWidth: 0
Flags: HMW
LayerCount: 3
Back
SplineSet
295 719 m 4
 298 719 303 719 306 719 c 4
 341 719 380 718 380 684 c 7
 380 656 372 649 356 616 c 4
 349 602 341 583 336 573 c 6
 310 512 l 6
 298 488 297 484 292 463 c 4
 292 462 291 462 291 461 c 4
 291 455 295 445 301 445 c 4
 310 445 314 447 323 453 c 4
 338 461 359 467 382 467 c 31
 449 467 524 450 524 367 c 7
 524 320 491 273 448 273 c 7
 408 273 396 304 396 335 c 23
 396 352 409 377 409 379 c 6
 409 381 l 6
 409 383 413 391 413 396 c 7
 413 398 413 401 413 403 c 4
 413 426 410 429 372 429 c 7
 324 429 263 353 263 326 c 7
 263 295 275 273 284 256 c 4
 304 214 312 193 331 136 c 4
 339 114 343 74 348 67 c 4
 353 60 358 57 367 57 c 4
 375 57 381 61 391 70 c 4
 407 85 406 81 428 119 c 4
 447 153 451 165 464 165 c 7
 469 165 471 146 471 143 c 7
 471 131 460 93 443 66 c 28
 426 39 408 24 386 7 c 4
 366 -9 336 -22 308 -22 c 4
 302 -22 298 -22 292 -20 c 4
 275 -13 266 0 256 37 c 4
 244 79 202 171 185 171 c 7
 177 171 175 160 167 138 c 4
 160 119 152 92 143 61 c 4
 134 30 124 17 112 0 c 4
 107 -8 111 -12 99 -12 c 4
 94 -12 83 -9 71 -9 c 4
 62 -9 51 -13 39 -13 c 6
 38 -13 l 6
 25 -13 24 -12 24 5 c 4
 24 14 27 24 28 31 c 4
 33 51 42 78 62 115 c 4
 69 129 84 160 99 194 c 4
 135 278 159 335 173 362 c 4
 204 426 258 582 271 632 c 4
 273 641 273 649 273 656 c 4
 273 673 265 681 250 684 c 4
 235 687 228 685 228 694 c 4
 228 700 229 714 238 716 c 4
 251 719 264 719 281 719 c 4
 286 719 290 719 295 719 c 4
EndSplineSet
Fore
SplineSet
120 -0 m 1
 10 0 l 1
 302 626 l 2
 320 663 314 687 280 687 c 2
 263 687 l 1
 279 721 l 1
 457 721 l 1
 268.718 318.178 l 1
 360.638 323.926 401.33 467 515 467 c 0
 574.5 467 590.788 420.673 590.788 391.158 c 0
 590.788 345.062 560 310.362 524.249 310.362 c 0
 491.439 310.362 470.488 342.065 473.782 380.772 c 0
 476.667 414.667 464.031 415.77 445 401.47 c 0
 408 373.667 380 331 324 300 c 1
 428 257 385.887 153.44 364.713 87.5 c 0
 345.534 27.7737 379.494 20.9932 419 52.084 c 0
 458.208 82.9404 492.579 135.779 505 162 c 1
 535 146 l 1
 504.29 74.3438 423.869 -17 335 -17 c 0
 286.02 -17 263.775 13.2864 263.775 55.581 c 0
 263.775 108.693 296.958 161.411 296.958 218.66 c 0
 296.958 254.016 285.836 282.477 252.716 283.941 c 1
 120 -0 l 1
EndSplineSet
Layer: 2
SplineSet
445 401.47 m 4
 408 373.667 380 331 324 300 c 5
 428 257 385.887 153.44 364.713 87.5 c 4
 345.534 27.7737 379.494 20.9932 419 52.084 c 4
 458.208 82.9404 492.579 135.779 505 162 c 13
 535 146 l 5
 504.29 74.3438 423.869 -17 335 -17 c 4
 286.02 -17 263.775 13.2864 263.775 55.581 c 4
 263.775 108.693 296.958 161.411 296.958 218.66 c 4
 296.958 254.965 285.231 284 250 284 c 6
 164 284 l 5
 180 318 l 5
 263 318 l 6
 359 318 399 467 515 467 c 4
 574.5 467 590.788 420.673 590.788 391.158 c 4
 590.788 345.062 560 310.362 524.249 310.362 c 4
 491.439 310.362 470.488 342.065 473.782 380.772 c 4
 476.667 414.667 464.031 415.77 445 401.47 c 4
120 -0 m 13
 10 0 l 21
 302 626 l 6
 320 663 314 687 280 687 c 6
 263 687 l 5
 279 721 l 13
 457 721 l 21
 120 -0 l 13
EndSplineSet
EndChar

StartChar: d
Encoding: 100 100 22
Width: 572
VWidth: 0
Flags: HMW
LayerCount: 3
Back
SplineSet
290 400 m 3
 194 400 109 164 109 74 c 3
 109 64 119 48 136 48 c 3
 197 48 264 127 301 262 c 0
 310 293 329 320 329 350 c 3
 329 385 316 400 290 400 c 3
553 730 m 27
 576 730 600 715 600 694 c 3
 600 649 505 459 485 414 c 0
 435 305 355 123 355 78 c 3
 355 63 362 59 369 59 c 3
 430 59 460 185 495 185 c 3
 503 185 506 177 506 164 c 3
 506 137 491 112 478 92 c 2
 446 43 l 2
 420 3 374 -17 343 -17 c 3
 285 -17 277 52 250 52 c 3
 214 52 215 -10 118 -10 c 3
 32 -10 19 63 19 129 c 27
 19 290 183 468 254 468 c 3
 331 468 336 424 362 424 c 3
 391 424 412 479 431 522 c 0
 451 569 479 622 479 648 c 3
 479 682 458 685 458 702 c 3
 458 719 515 730 553 730 c 27
EndSplineSet
Fore
SplineSet
278 418 m 4
 220 418 170 323 139 252 c 4
 93 150 64 30 127 30 c 4
 179 30 231 116 283 229 c 6
 301 269 l 6
 329 328 322 418 278 418 c 4
238 62 m 5
 200 12 156 -17 112 -17 c 4
 23 -17 0 54 0 125 c 4
 0 293 146 467 264 467 c 4
 315 467 341 430 354 384 c 5
 467 626 l 6
 485 663 479 687 445 687 c 6
 428 687 l 5
 444 721 l 5
 622 721 l 5
 334 105 l 6
 314 62 318 39 343 39 c 4
 380 39 430 115 466 194 c 5
 497 177 l 5
 455 85 387 -17 312 -17 c 4
 263 -17 242 16 238 62 c 5
EndSplineSet
EndChar

StartChar: f
Encoding: 102 102 23
Width: 479
VWidth: 0
Flags: HMW
LayerCount: 3
Back
SplineSet
491 717 m 3
 545 717 587 670 587 616 c 27
 587 567 547 531 498 531 c 27
 481 531 465 545 465 562 c 27
 465 592 486 609 486 639 c 27
 486 647 480 654 472 654 c 3
 426 654 343 482 343 471 c 3
 343 466 348 463 351 462 c 0
 403 440 428 459 428 429 c 3
 428 400 398 398 375 398 c 19
 368 398 361 398 356 398 c 0
 339 398 328 396 302 374 c 0
 265 340 229 223 167 92 c 0
 87 -79 -38 -291 -183 -291 c 3
 -239 -291 -281 -251 -281 -187 c 8
 -281 -145 -266 -105 -214 -105 c 3
 -188 -105 -161 -118 -161 -144 c 27
 -161 -164 -170 -175 -170 -195 c 27
 -170 -207 -166 -220 -154 -220 c 3
 -126 -220 -38 -59 -21 -26 c 0
 62 135 69 204 127 328 c 0
 137 351 148 367 148 375 c 3
 148 408 59 376 59 425 c 3
 59 439 89 461 113 461 c 19
 131 461 150 455 165 455 c 0
 173 455 179 457 184 461 c 0
 191 467 254 564 307 624 c 0
 341 662 439 717 491 717 c 3
EndSplineSet
Fore
SplineSet
212 50 m 6
 169 -42 43 -286 -115 -286 c 4
 -200 -286 -250 -235 -250 -168 c 4
 -250 -119 -210 -79 -172 -79 c 4
 -137 -79 -117 -106 -117 -140 c 4
 -117 -184 -152 -218 -183 -227 c 5
 -174 -244 -156 -248 -132 -248 c 4
 -33 -248 42 -61 73 6 c 6
 267 422 l 6
 310 514 436 758 594 758 c 4
 679 758 729 707 729 640 c 4
 729 591 689 551 651 551 c 4
 616 551 596 578 596 612 c 4
 596 656 631 690 662 699 c 5
 653 716 636 720 612 720 c 4
 512 720 437 533 406 466 c 6
 212 50 l 6
482 396 m 1
 137 396 l 1
 153 430 l 1
 498 430 l 1
 482 396 l 1
EndSplineSet
Layer: 2
SplineSet
-28 -186 m 2
 -70.792 -278.096 -197 -522 -355 -522 c 0
 -440 -522 -490 -471 -490 -404 c 0
 -490 -355 -450 -315 -412 -315 c 0
 -377 -315 -357 -342 -357 -376 c 0
 -357 -420 -392 -454 -423 -463 c 1
 -414 -480 -396 -484 -372 -484 c 0
 -273 -484 -198.108 -296.95 -167 -230 c 2
 27 186 l 2
 69.9209 278.037 196 522 354 522 c 0
 439 522 489 471 489 404 c 0
 489 355 449 315 411 315 c 0
 376 315 356 342 356 376 c 0
 356 420 391 454 422 463 c 1
 413 480 396 484 372 484 c 0
 272 484 197.381 297.292 166 230 c 2
 -28 -186 l 2
770 957 m 1
 425 957 l 1
 441 991 l 1
 786 991 l 1
 770 957 l 1
-149 -266 m 3
 -207 -266 -260 -214.775 -260 -153 c 17
 -238.5 -140.5 -194 -155 -197 -191.5 c 1
 -197 -222 -165 -228 -154 -228 c 3
 -113 -228 -82.6761 -176.684 -52 -111 c 10
 210 450 l 25
 322 450 l 17
 144.667 70 l 2
 101.858 -21.7336 -4.34663 -266 -149 -266 c 3
-251.672 -107.819 m 0
 -233.242 -68.2969 -194.781 -50.8766 -163 -62 c 0
 -133 -72.5 -117.673 -115.856 -136.102 -155.378 c 0
 -154.531 -194.9 -199.257 -219.428 -229.773 -205.197 c 0
 -260.291 -190.967 -270.101 -147.341 -251.672 -107.819 c 0
EndSplineSet
EndChar

StartChar: z
Encoding: 122 122 24
Width: 487
VWidth: 1000
Flags: HMW
LayerCount: 3
Back
SplineSet
391 68 m 5
 373 71 345 82 330 99 c 4
 302 132 301 176 325 196 c 4
 333 203 344 206 355 206 c 4
 399 206 439 162 439 100 c 4
 439 30 377 -30 298 -30 c 4
 252 -30 227 -14 192 28 c 4
 138 92 84 58 41 12 c 6
 30 0 l 5
 -25 0 l 5
 298 340 l 5
 149 347 l 6
 114 349 100 328 84 290 c 6
 71 257 l 5
 39 265 l 5
 102 457 l 5
 200 451 336 447 419 449 c 5
 434 428 l 5
 146 122 l 5
 256 161 298 36 349 36 c 4
 374 36 385 53 391 68 c 5
EndSplineSet
Fore
SplineSet
397 62 m 1
 379 65 345 82 330 99 c 0
 302 132 301 176 325 196 c 0
 333 203 344 206 355 206 c 0
 408 206 439 147 439 88 c 0
 439 18 393 -33 321 -33 c 0
 274 -33 225 -11 192 28 c 0
 138 92 84 58 41 12 c 2
 13 -18 l 1
 -25 0 l 1
 298 340 l 1
 149 347 l 2
 114 349 100 328 84 290 c 2
 71 257 l 1
 39 265 l 1
 102 457 l 1
 200 451 336 447 419 449 c 1
 434 428 l 1
 146 122 l 1
 256 161 304 30 355 30 c 0
 380 30 391 47 397 62 c 1
EndSplineSet
Layer: 2
SplineSet
382.966 83.8701 m 5
 364.606 86.8135 345.608 97.687 331 115 c 4
 303 148 301 191 325 211 c 4
 333.38 217.984 343.944 221.3 355.299 221.3 c 4
 399.12 221.3 438.651 177 438.651 115 c 4
 438.651 45.5 377.186 -15 298 -15 c 15
 208.506 -15 159 26 95 92 c 13
 156 160 l 21
 212 107 262 62 334 62 c 7
 361.007 62 377.108 69.4004 382.966 83.8701 c 5
434 428 m 5
 30 0 l 13
 -25 0 l 29
 298 340 l 29
 108 349 l 29
 71 257 l 29
 39 265 l 29
 102 457 l 21
 200 451 336 447 419 449 c 5
 434 428 l 5
EndSplineSet
EndChar

StartChar: j
Encoding: 106 106 25
Width: 338
VWidth: 0
Flags: HMW
LayerCount: 3
Back
SplineSet
344 695 m 7
 370 695 383 674 383 643 c 6
 383 639 l 6
 383 596 351 570 313 570 c 7
 300 570 274 598 274 633 c 7
 274 662 281 695 344 695 c 7
124 276 m 28
 138 315 150 365 150 379 c 7
 150 389 141 397 131 397 c 31
 108 397 94 382 81 367 c 4
 72 357 61 344 48 323 c 4
 45 316 35 311 24 311 c 23
 20 311 20 314 20 318 c 4
 20 319 20 321 20 323 c 7
 20 327 40 354 40 354 c 30
 63 390 l 6
 77 410 88 421 107 438 c 28
 117 448 123 453 136 458 c 28
 155 465 168 467 188 467 c 7
 210 467 254 448 254 377 c 7
 254 336 242 310 235 294 c 4
 216 248 199 195 173 147 c 4
 110 33 40 -212 -114 -212 c 7
 -170 -212 -212 -172 -212 -108 c 12
 -212 -67 -198 -26 -146 -26 c 7
 -120 -26 -111 -45 -111 -65 c 31
 -111 -98 -132 -115 -132 -146 c 7
 -132 -160 -120 -161 -102 -161 c 4
 -100 -161 l 7
 -59 -161 -4 -21 22 31 c 4
 62 113 88 179 124 276 c 28
EndSplineSet
Fore
SplineSet
309.429 662.164 m 0
 325.991 697.685 362.983 715.531 392 702 c 0
 421.017 688.47 431.123 648.66 414.56 613.141 c 0
 397.997 577.62 361.005 559.773 331.988 573.305 c 0
 302.972 586.835 292.865 626.645 309.429 662.164 c 0
162 50 m 2
 119.079 -42.0371 -7 -286 -165 -286 c 0
 -250 -286 -300 -235 -300 -168 c 0
 -300 -119 -260 -79 -222 -79 c 0
 -187 -79 -167 -106 -167 -140 c 0
 -167 -184 -202 -218 -233 -227 c 1
 -224 -244 -206 -248 -182 -248 c 0
 -83 -248 -8.25195 -60.8828 23 6 c 2
 170.28 322 l 2
 187.233 358.373 196.984 411 152 411 c 3
 112 411 45 335 9 256 c 9
 -22 273 l 1
 20 365 100 467 183 467 c 3
 293 467 288.794 322.883 242.384 223 c 2
 162 50 l 2
EndSplineSet
Layer: 2
SplineSet
348.538 450 m 5
 162 50 l 6
 119 -42 -7 -286 -165 -286 c 4
 -250 -286 -300 -235 -300 -168 c 4
 -300 -119 -260 -79 -222 -79 c 4
 -187 -79 -167 -106 -167 -140 c 4
 -167 -184 -202 -218 -233 -227 c 5
 -224 -244 -206 -248 -182 -248 c 4
 -83 -248 -8 -61 23 6 c 6
 230.468 450 l 5
 348.538 450 l 5
-300 0 m 2
 -139 345 l 2
 -119 387 -123 411 -148 411 c 3
 -185 411 -235 335 -271 256 c 9
 -302 273 l 1
 -260 365 -192 467 -117 467 c 3
 -23 467 -30 344 -75 248 c 2
 -150 86 l 2
 -210 -42 -300 -210 -420 -210 c 3
 -478 -210 -525 -161 -525 -102 c 27
 -525 -63 -500 -24 -461 -24 c 27
 -435 -24 -415 -47 -415 -72 c 3
 -415 -114 -450 -128 -450 -151 c 3
 -450 -165 -436 -172 -425 -172 c 3
 -384 -172 -348 -103 -300 0 c 2
EndSplineSet
EndChar

StartChar: y
Encoding: 121 121 26
Width: 580
VWidth: 0
Flags: HMW
LayerCount: 3
Back
SplineSet
400 382 m 3
 400 395 407 441 426 460 c 0
 428 462 432 463 435 463 c 0
 445 463 459 456 472 456 c 2
 480 456 l 2
 494 456 501 453 501 417 c 3
 501 376 484 310 477 294 c 0
 458 248 440 195 414 147 c 0
 351 33 270 -258 116 -258 c 3
 23 -258 -19 -218 -19 -154 c 8
 -19 -113 -5 -72 47 -72 c 3
 73 -72 81 -91 81 -111 c 27
 81 -139 61 -150 61 -181 c 3
 61 -204 81 -208 100 -208 c 0
 111 -208 122 -207 128 -207 c 2
 130 -207 l 2
 162 -207 243 -114 243 -40 c 3
 243 -11 242 -11 218 -11 c 2
 217 -11 l 2
 187 -11 171 -21 143 -21 c 0
 89 -21 53 19 53 73 c 3
 53 102 60 129 68 153 c 0
 112 290 174 329 174 367 c 3
 174 389 157 392 141 392 c 27
 123 392 101 367 92 360 c 0
 77 348 71 340 62 326 c 0
 57 319 52 312 46 312 c 3
 40 312 40 331 40 336 c 0
 40 352 57 370 73 387 c 0
 104 421 129 456 190 456 c 3
 230 456 255 420 255 357 c 3
 255 270 134 146 134 74 c 3
 134 50 153 29 177 29 c 3
 202 29 251 62 282 101 c 24
 329 161 347 208 371 276 c 8
 385 316 400 368 400 382 c 3
EndSplineSet
Fore
SplineSet
228.998 216 m 2
 172 105 l 2
 150.141 62.4307 168 39 192 39 c 0
 217.855 39 267.181 90.0663 306.449 148.113 c 1
 448 450 l 1
 560 450 l 1
 371 44 l 2
 328.142 -48.0664 207 -292 49 -292 c 0
 -36 -292 -86 -241 -86 -174 c 0
 -86 -125 -46 -85 -8 -85 c 0
 27 -85 47 -112 47 -146 c 0
 47 -190 12 -224 -19 -233 c 1
 -10 -250 8 -254 32 -254 c 0
 131 -254 205.659 -66.8408 237 0 c 2
 244.771 16.5734 l 1
 216.416 -4.81298 187.365 -17 160 -17 c 0
 68.5 -17 37.2471 74.0537 104 199 c 2
 182.001 345 l 2
 204.551 387.208 198 411 172 411 c 0
 136 411 97 354 66 288 c 1
 36 304 l 1
 70 382 128 467 204 467 c 0
 298 467 303.162 360.43 228.998 216 c 2
EndSplineSet
Layer: 2
SplineSet
371 44 m 6
 328.142 -48.0664 207 -292 49 -292 c 4
 -36 -292 -86 -241 -86 -174 c 4
 -86 -125 -46 -85 -8 -85 c 4
 27 -85 47 -112 47 -146 c 4
 47 -190 12 -224 -19 -233 c 5
 -10 -250 8 -254 32 -254 c 4
 131 -254 205.659 -66.8408 237 0 c 14
 448 450 l 29
 560 450 l 21
 371 44 l 6
228.998 216 m 6
 172 105 l 6
 150.141 62.4307 168 39 192 39 c 7
 228 39 309.5 138 346 217 c 13
 376 201 l 5
 325 77 236 -17 160 -17 c 7
 68.5 -17 37.2471 74.0537 104 199 c 6
 182.001 345 l 6
 204.551 387.208 198 411 172 411 c 7
 136 411 97 354 66 288 c 13
 36 304 l 5
 70 382 128 467 204 467 c 7
 298 467 303.162 360.43 228.998 216 c 6
EndSplineSet
EndChar

StartChar: w
Encoding: 119 119 27
Width: 728
VWidth: 0
Flags: HMW
LayerCount: 3
Back
SplineSet
432 40 m 3
 489 40 628 190 628 299 c 0
 628 312 624 329 615 332 c 0
 587 342 545 369 545 404 c 0
 545 431 583 456 607 456 c 0
 646 456 684 448 684 386 c 3
 684 287 653 183 567 85 c 0
 516 27 455 -11 413 -11 c 3
 374 -11 358 49 337 49 c 3
 300 49 275 -10 169 -10 c 3
 115 -10 69 30 69 84 c 3
 69 113 76 140 84 164 c 0
 128 301 191 340 191 378 c 3
 191 400 175 403 159 403 c 27
 148 403 140 398 133 390 c 0
 121 377 119 378 110 371 c 0
 95 359 89 351 80 337 c 0
 75 330 71 323 63 323 c 27
 58 323 56 328 56 333 c 3
 56 349 76 375 90 398 c 0
 113 438 158 467 208 467 c 3
 248 467 282 431 282 368 c 3
 282 281 161 157 161 85 c 0
 161 63 176 39 196 39 c 0
 198 39 201 39 203 40 c 8
 252 53 292 98 303 123 c 0
 336 198 344 255 367 306 c 0
 390 358 400 417 416 443 c 0
 424 457 432 460 440 460 c 0
 449 460 459 456 470 456 c 0
 485 456 506 454 506 439 c 11
 506 405 505 414 484 355 c 0
 474 325 439 252 416 185 c 24
 404 150 394 127 394 93 c 3
 394 81 400 40 432 40 c 3
EndSplineSet
Fore
SplineSet
435 38 m 3
 526 38 663 244 639 323 c 0
 633 341 578 339 578 401 c 3
 578 434 605 467 640 467 c 27
 681 467 702 422 702 381 c 27
 702 188 535 -17 406 -17 c 3
 342 -17 304 27 312 96 c 1
 268 22 215 -17 160 -17 c 3
 68 -17 37 74 104 199 c 2
 182 345 l 2
 205 387 198 411 172 411 c 3
 136 411 97 354 66 288 c 9
 36 304 l 1
 70 382 128 467 204 467 c 3
 298 467 303 360 229 216 c 2
 172 105 l 2
 150 62 168 39 192 39 c 3
 228 39 270 105 300 170 c 2
 431 450 l 1
 541 450 l 1
 419 189 l 2
 370 83 401 38 435 38 c 3
EndSplineSet
EndChar

StartChar: x
Encoding: 120 120 28
Width: 692
VWidth: 0
Flags: HMW
LayerCount: 3
Back
SplineSet
335 351 m 4
 338 389 319 428 283 428 c 4
 235 428 195 360 165 288 c 5
 137 304 l 5
 174 402 229 467 297 467 c 4
 370 467 400 378 400 378 c 5
 443 430 504 467 567 467 c 4
 639 467 663 404 660 362 c 4
 656 321 625 275 584 275 c 4
 551 275 532 301 535 330 c 4
 540 390 596 390 598 412 c 4
 599 422 594 430 574 430 c 4
 509 430 385 213 378 123 c 4
 373 71 381 22 424 22 c 4
 472 22 512 90 542 162 c 5
 571 146 l 5
 533 48 480 -17 411 -17 c 4
 338 -17 307 72 307 72 c 5
 265 20 204 -17 141 -17 c 4
 69 -17 44 46 48 88 c 4
 51 129 82 175 123 175 c 4
 156 175 175 149 172 120 c 4
 167 60 111 60 109 38 c 4
 108 28 114 20 134 20 c 4
 179 20 324 230 335 351 c 4
312 466 m 0
 328 458 338 443 358 404 c 0
 366 388 372 381 378 381 c 3
 392 381 406 386 432 407 c 0
 470 440 486 452 504 460 c 0
 518 467 530 470 542 470 c 0
 578 470 606 435 606 397 c 0
 606 353 574 315 530 315 c 0
 506 315 494 321 494 340 c 0
 494 348 498 365 498 372 c 0
 498 380 494 385 486 385 c 0
 468 385 452 373 432 353 c 0
 384 306 350 277 328 180 c 0
 324 159 318 140 318 125 c 3
 318 118 317 109 317 101 c 0
 317 82 322 63 353 63 c 3
 395 63 450 109 480 165 c 0
 484 171 496 181 510 181 c 3
 520 181 520 175 520 163 c 2
 520 161 l 2
 520 125 468 75 440 50 c 0
 396 10 354 -12 322 -12 c 0
 310 -12 300 -10 292 -5 c 0
 278 3 262 32 252 56 c 0
 244 81 238 87 226 87 c 3
 222 87 216 85 210 82 c 0
 170 58 116 14 70 0 c 0
 62 -2 60 -3 46 -3 c 0
 -6 -3 -38 48 -38 76 c 0
 -38 120 -0 155 34 155 c 0
 64 155 78 145 78 120 c 0
 78 110 76 95 76 85 c 0
 76 73 78 60 88 60 c 0
 90 60 94 60 98 61 c 0
 128 70 194 139 212 175 c 0
 232 214 248 232 262 268 c 0
 278 309 281 326 281 348 c 0
 281 376 273 414 246 414 c 3
 193 414 142 360 136 336 c 0
 133 323 107 309 100 309 c 3
 97 309 86 310 86 319 c 3
 86 375 179 472 273 472 c 27
 288 472 306 469 312 466 c 0
EndSplineSet
Fore
SplineSet
164 126 m 0
 164 61 101 61 101 36 c 0
 101 27 116 20 135 20 c 0
 217 20 327 248 327 359 c 0
 327 394 309 428 275 428 c 0
 227 428 187 360 157 288 c 1
 129 304 l 1
 166 402 221 467 289 467 c 0
 362 467 374 362 374 362 c 1
 430 427 487 467 550 467 c 0
 621 467 652 411 652 369 c 0
 652 324 618 275 576 275 c 0
 545 275 527 298 527 324 c 0
 527 389 590 389 590 414 c 0
 590 423 581 430 563 430 c 0
 491 430 369 199 369 97 c 0
 369 56 380 22 416 22 c 0
 464 22 504 90 534 162 c 1
 563 146 l 1
 525 48 472 -17 403 -17 c 0
 330 -17 322 84 322 84 c 1
 276 19 213 -17 146 -17 c 0
 73 -17 40 38 40 79 c 0
 40 125 72 175 115 175 c 0
 146 175 164 152 164 126 c 0
EndSplineSet
Layer: 2
SplineSet
164 126 m 4
 164 61 101 61 101 36 c 4
 101 27 107 20 126 20 c 4
 167 20 327 235 327 359 c 4
 327 394 309 428 275 428 c 4
 227 428 187 360 157 288 c 5
 129 304 l 5
 166 402 221 467 289 467 c 4
 362 467 392 378 392 378 c 5
 435 430 496 467 559 467 c 4
 627 467 652 411 652 369 c 4
 652 324 618 275 576 275 c 4
 545 275 527 298 527 324 c 4
 527 389 590 389 590 414 c 4
 590 423 584 430 566 430 c 4
 494 430 369 199 369 97 c 4
 369 56 380 22 416 22 c 4
 464 22 504 90 534 162 c 5
 563 146 l 5
 525 48 472 -17 403 -17 c 4
 330 -17 299 72 299 72 c 5
 257 20 196 -17 133 -17 c 4
 66 -17 40 38 40 79 c 4
 40 125 72 175 115 175 c 4
 146 175 164 152 164 126 c 4
-98 203 m 3
 -146 203 -170 135 -194 63 c 9
 -224 79 l 1
 -195 177 -161 242 -93 242 c 3
 62 242 -22 -203 98 -203 c 3
 146 -203 170 -135 194 -63 c 9
 224 -79 l 1
 195 -177 161 -242 93 -242 c 3
 -62 -242 22 203 -98 203 c 3
172 242 m 0
 244 242 274 179 274 137 c 3
 274 95.6309 246.531 49.7314 205.631 49.7314 c 0
 172.611 49.7314 152.019 75.835 152.019 104.554 c 0
 152.019 165.333 208 165 208 187 c 3
 208 197 202 205 182 205 c 0
 82 205 48 -242 -172 -242 c 0
 -244 -242 -274 -179 -274 -137 c 3
 -274 -95.6309 -246.531 -49.7314 -205.631 -49.7314 c 0
 -172.611 -49.7314 -152.019 -75.835 -152.019 -104.554 c 0
 -152.019 -165.333 -208 -165 -208 -187 c 3
 -208 -197 -202 -205 -182 -205 c 0
 -82 -205 -48 242 172 242 c 0
602 203 m 3
 554 203 530 135 506 63 c 9
 476 79 l 1
 505 177 539 242 607 242 c 3
 762 242 678 -203 798 -203 c 3
 846 -203 870 -135 894 -63 c 9
 924 -79 l 1
 895 -177 861 -242 793 -242 c 3
 638 -242 722 203 602 203 c 3
520 -204 m 0
 632 -204 674 242 868 242 c 0
 940 242 963 179 963 137 c 3
 963 88 940.186 53 899 53 c 27
 871.952 53 852 77 852 104 c 3
 852 154 902 161 902 182 c 3
 902 195 896 204 876 204 c 0
 776 204 734 -242 528 -242 c 0
 456 -242 433 -179 433 -137 c 3
 433 -88 455.814 -53 497 -53 c 27
 524.048 -53 544 -77 544 -104 c 3
 544 -154 494 -161 494 -182 c 3
 494 -195 500 -204 520 -204 c 0
EndSplineSet
EndChar

StartChar: F
Encoding: 70 70 96
Width: 453
VWidth: 0
Flags: HMW
LayerCount: 3
Fore
SplineSet
402 416 m 5
 93 416 l 5
 109 450 l 5
 418 450 l 5
 402 416 l 5
145 70 m 6
 102 -22 -4 -266 -149 -266 c 4
 -208 -266 -261 -215 -261 -148 c 4
 -261 -99 -221 -59 -183 -59 c 4
 -148 -59 -128 -86 -128 -120 c 4
 -128 -164 -163 -198 -194 -207 c 5
 -185 -224 -163 -228 -154 -228 c 4
 -113 -228 -83 -177 -52 -111 c 6
 187 402 l 6
 230 494 336 738 481 738 c 4
 540 738 593 687 593 620 c 4
 593 571 553 531 515 531 c 4
 480 531 460 558 460 592 c 4
 460 636 495 670 526 679 c 5
 517 696 495 700 486 700 c 4
 445 700 415 649 384 583 c 6
 145 70 l 6
EndSplineSet
EndChar

